<?xml version="1.0" encoding="utf-8"?>
<!-- Generator: Adobe Illustrator 16.0.0, SVG Export Plug-In . SVG Version: 6.00 Build 0)  -->
<!DOCTYPE svg PUBLIC "-//W3C//DTD SVG 1.1//EN" "http://www.w3.org/Graphics/SVG/1.1/DTD/svg11.dtd">
<svg version="1.1" id="Capa_1" xmlns="http://www.w3.org/2000/svg" xmlns:xlink="http://www.w3.org/1999/xlink" x="0px" y="0px"
	 width="465.551px" height="251.023px" viewBox="0 0 465.551 251.023" enable-background="new 0 0 465.551 251.023"
	 xml:space="preserve">
<g>
	
		<linearGradient id="SVGID_1_" gradientUnits="userSpaceOnUse" x1="1058" y1="1304.6023" x2="1144.4453" y2="1304.6023" gradientTransform="matrix(0.4098 -0.9122 0.9122 0.4098 -1325.1501 683.1132)">
		<stop  offset="0" style="stop-color:#FFE564"/>
		<stop  offset="1" style="stop-color:#77C9BB"/>
	</linearGradient>
	<path fill="url(#SVGID_1_)" d="M210.027,212.897c0,0,54.568-61.989,205.495,15.813c0,0-37.804-39.17-73.427-50.643
		C305.1,166.155,239.714,163.971,210.027,212.897z"/>
	
		<linearGradient id="SVGID_2_" gradientUnits="userSpaceOnUse" x1="1089.5498" y1="1317.2986" x2="1157.6982" y2="1317.2986" gradientTransform="matrix(0.4098 -0.9122 0.9122 0.4098 -1325.1501 683.1132)">
		<stop  offset="0" style="stop-color:#FFE564"/>
		<stop  offset="1" style="stop-color:#77C9BB"/>
	</linearGradient>
	<path fill="url(#SVGID_2_)" d="M230.382,187.453c0,0,101.188-21.671,185.145,41.26c0,0,15.791,3.498,24.53-12.515
		c0,0,3.242-9.218-17.831-17.113C378.483,182.686,288.773,142.766,230.382,187.453z"/>
	
		<linearGradient id="SVGID_3_" gradientUnits="userSpaceOnUse" x1="1001.5537" y1="1283.4021" x2="1168.8643" y2="1283.4021" gradientTransform="matrix(0.4098 -0.9122 0.9122 0.4098 -1325.1501 683.1132)">
		<stop  offset="0" style="stop-color:#FFE564"/>
		<stop  offset="1" style="stop-color:#77C9BB"/>
	</linearGradient>
	<path fill="url(#SVGID_3_)" d="M160.918,225.28c0,0,34.456-5.613,48.264-26.928c17.774-27.433,55.539-51.153,121.796-38.972
		c79.508,14.615,105.125,35.714,105.125,35.714s9.559,8.083,3.945,21.094c-1.72-0.307-13.482-26.771-118.184-39.889
		c-104.703-13.111-84.807,28.163-136.997,54.629c-35.958,18.232-52.369,9.004-52.369,9.004S158.312,231.08,160.918,225.28z"/>
	
		<linearGradient id="SVGID_4_" gradientUnits="userSpaceOnUse" x1="991.8213" y1="1101.7888" x2="1215.209" y2="1101.7888" gradientTransform="matrix(0.4098 -0.9122 0.9122 0.4098 -1325.1501 683.1132)">
		<stop  offset="0" style="stop-color:#FFE564"/>
		<stop  offset="1" style="stop-color:#77C9BB"/>
	</linearGradient>
	<path fill="url(#SVGID_4_)" d="M35.076,84.404C9.795,140.673,34.92,206.779,91.19,232.061c27.06,12.158,56.392,12.63,82.371,3.611
		c-21.076,5.314-44.02,3.857-65.388-5.74c-50.396-22.641-72.896-81.85-50.254-132.247c22.638-50.395,81.847-72.897,132.244-50.252
		c33.666,15.123,54.857,46.566,58.485,80.802c-0.756-41.898-25.155-81.638-65.916-99.948C126.464,3.009,60.352,28.132,35.076,84.404
		z"/>
	
		<linearGradient id="SVGID_5_" gradientUnits="userSpaceOnUse" x1="1067.2402" y1="1095.3142" x2="1200.3711" y2="1095.3142" gradientTransform="matrix(0.4098 -0.9122 0.9122 0.4098 -1325.1501 683.1132)">
		<stop  offset="0" style="stop-color:#FFE564"/>
		<stop  offset="1" style="stop-color:#77C9BB"/>
	</linearGradient>
	<path fill="url(#SVGID_5_)" d="M41.059,84.537c-5.638,12.55-8.287,25.678-8.293,38.596c1.055-9.355,3.542-18.711,7.607-27.754
		c21.107-46.978,76.301-67.955,123.278-46.853c41.782,18.771,62.967,64.51,52.297,107.446
		c17.101-46.222-4.299-98.429-49.931-118.928C118.401,15.652,62.456,36.912,41.059,84.537z"/>
	
		<linearGradient id="SVGID_6_" gradientUnits="userSpaceOnUse" x1="832.3467" y1="628.3533" x2="1077.415" y2="628.3533" gradientTransform="matrix(0.7071 -0.7071 0.7071 0.7071 -992.8326 353.4126)">
		<stop  offset="0" style="stop-color:#FFE564"/>
		<stop  offset="1" style="stop-color:#77C9BB"/>
	</linearGradient>
	<path fill="url(#SVGID_6_)" d="M12.169,166.053c24.039,63.244,94.788,95.031,158.031,70.996
		c18.618-7.072,34.481-18.219,47.023-32.003c-10.419,10.684-23.257,19.341-38.123,24.995
		c-54.604,20.746-115.683-6.695-136.431-61.294c-2.904-7.645-4.836-15.417-5.907-23.188c-11.628-45.179,12.312-92.838,56.94-109.8
		c2.921-1.108,5.869-2.054,8.818-2.854c0.489-0.194,0.948-0.409,1.439-0.596c54.602-20.742,115.684,6.696,136.433,61.297
		c8.396,22.096,8.898,45.248,2.9,66.363c8.219-25.534,8.172-53.923-2.1-80.954c-24.033-63.241-94.79-95.03-158.029-70.993
		C19.922,32.058-11.864,102.807,12.169,166.053z"/>
	
		<linearGradient id="SVGID_7_" gradientUnits="userSpaceOnUse" x1="1049.7871" y1="1242.1804" x2="1153.5664" y2="1242.1804" gradientTransform="matrix(0.4098 -0.9122 0.9122 0.4098 -1325.1501 683.1132)">
		<stop  offset="0" style="stop-color:#FFE564"/>
		<stop  offset="1" style="stop-color:#77C9BB"/>
	</linearGradient>
	<path fill="url(#SVGID_7_)" d="M199.497,216.475c0,0,21.492-24.986,39.826-36.171c20.735-12.65,60.617-22.549,80.453-22.874
		c0,0-35.021-1.725-56.595,4.793c0,0-13.38,1.479-40.418,22.549c0,0-12.023,13.452-17.625,21.003l-6.046,11.213"/>
	
		<linearGradient id="SVGID_8_" gradientUnits="userSpaceOnUse" x1="999.4121" y1="1117.2595" x2="1158.8467" y2="1117.2595" gradientTransform="matrix(0.4098 -0.9122 0.9122 0.4098 -1325.1501 683.1132)">
		<stop  offset="0" style="stop-color:#FFE564"/>
		<stop  offset="1" style="stop-color:#77C9BB"/>
	</linearGradient>
	<path fill="url(#SVGID_8_)" d="M211.207,197.405c-9.002,9.988-20.42,18.073-33.859,23.179
		c-45.192,17.176-95.747-5.54-112.92-50.727c-16.76-44.094,4.469-93.279,47.492-111.593c-1.099,0.376-2.205,0.741-3.3,1.16
		C61.127,77.468,37.264,130.596,55.31,178.083c18.048,47.488,71.171,71.358,118.66,53.313c25.401-9.654,43.991-29.36,53.072-52.859
		C220.917,187.285,215.498,193.317,211.207,197.405z"/>
</g>
</svg>
